<svg width="64" height="69" viewBox="0 0 64 69" fill="none" xmlns="http://www.w3.org/2000/svg">
<path d="M30.6953 24.1172C30.6953 25.7422 30.4375 27.2891 29.9219 28.7578C29.4062 30.2266 28.6641 31.4531 27.6953 32.4375C27.1016 33.0469 26.4453 33.6094 25.7266 34.125C25.0234 34.6406 24.2422 35.0781 23.3828 35.4375C22.5234 35.7969 21.5859 36.0781 20.5703 36.2812C19.5703 36.4844 18.4453 36.5859 17.1953 36.5859H12.6016V48H3.83594V13.1016H17.3828C19.3984 13.1016 21.1328 13.2891 22.5859 13.6641C24.0547 14.0234 25.3828 14.6016 26.5703 15.3984C27.8828 16.2734 28.8984 17.4453 29.6172 18.9141C30.3359 20.3672 30.6953 22.1016 30.6953 24.1172ZM21.6953 24.3281C21.6953 23.3438 21.4609 22.5 20.9922 21.7969C20.5234 21.0781 19.9609 20.5859 19.3047 20.3203C18.4766 19.9609 17.6797 19.7578 16.9141 19.7109C16.1641 19.6484 15.1406 19.6172 13.8438 19.6172H12.6016V30.0703H13.2109C14.0391 30.0703 14.8203 30.0625 15.5547 30.0469C16.2891 30.0312 16.9297 29.9766 17.4766 29.8828C17.9453 29.8047 18.4375 29.6562 18.9531 29.4375C19.4844 29.2031 19.8906 28.9453 20.1719 28.6641C20.7656 28.0859 21.1641 27.4844 21.3672 26.8594C21.5859 26.2344 21.6953 25.3906 21.6953 24.3281Z" fill="#003366"/>
<path d="M50.4023 59.3398C49.1263 59.8607 47.4661 60.3685 45.4219 60.8633C43.3906 61.3581 41.3854 61.6055 39.4062 61.6055C34.8359 61.6055 31.1901 60.2904 28.4688 57.6602C25.7604 55.0169 24.4062 51.2734 24.4062 46.4297C24.4062 41.8724 25.7604 38.2201 28.4688 35.4727C31.1901 32.7253 34.9076 31.3516 39.6211 31.3516C42.056 31.3516 44.0352 31.5859 45.5586 32.0547C47.082 32.5104 48.6576 33.1354 50.2852 33.9297V40.7461H49.6211C49.2695 40.4727 48.7617 40.0885 48.0977 39.5938C47.4466 39.0859 46.8086 38.6562 46.1836 38.3047C45.4544 37.888 44.6081 37.5299 43.6445 37.2305C42.694 36.931 41.6849 36.7812 40.6172 36.7812C39.3672 36.7812 38.2279 36.9766 37.1992 37.3672C36.1706 37.7578 35.2526 38.3568 34.4453 39.1641C33.6771 39.9453 33.0651 40.9349 32.6094 42.1328C32.1667 43.3307 31.9453 44.724 31.9453 46.3125C31.9453 49.7109 32.7982 52.2174 34.5039 53.832C36.2096 55.4466 38.5404 56.2539 41.4961 56.2539C41.7565 56.2539 42.0625 56.2474 42.4141 56.2344C42.7656 56.2214 43.0716 56.2018 43.332 56.1758V50.4727H37.6875V45.0234H50.4023V59.3398Z" fill="#FFD700"/>
</svg>
